<?xml version="1.0" encoding="UTF-8"?>
<svg width="772px" height="322px" viewBox="0 0 772 322" version="1.1" xmlns="http://www.w3.org/2000/svg" xmlns:xlink="http://www.w3.org/1999/xlink">
    <title>DAC_logo_1_white</title>
    <g id="DAC_logo_1_white" stroke="none" stroke-width="1" fill="none" fill-rule="evenodd">
        <g id="Group" transform="translate(32.000000, 32.000000)">
            <rect id="Rectangle" stroke="#FFFFFF" stroke-width="12" x="0" y="0" width="708" height="258"></rect>
            <g id="Group-2" transform="translate(92.000000, 86.000000)" fill="#FFFFFF" fill-rule="nonzero">
                <path d="M38.16,85.44 C65.64,85.44 84.48,68.88 84.48,43.44 C84.48,18 65.64,1.44 38.16,1.44 L4.26325641e-13,1.44 L4.26325641e-13,85.44 L38.16,85.44 Z M37.2,69.48 L19.44,69.48 L19.44,17.4 L37.2,17.4 C53.88,17.4 64.8,27.36 64.8,43.44 C64.8,59.52 53.88,69.48 37.2,69.48 Z M137.8,86.88 C164.2,86.88 183.76,68.52 183.76,43.44 C183.76,18.36 164.2,1.02318154e-12 137.8,1.02318154e-12 C111.28,1.02318154e-12 91.84,18.48 91.84,43.44 C91.84,68.4 111.28,86.88 137.8,86.88 Z M137.8,70.32 C122.8,70.32 111.52,59.4 111.52,43.44 C111.52,27.48 122.8,16.56 137.8,16.56 C152.8,16.56 164.08,27.48 164.08,43.44 C164.08,59.4 152.8,70.32 137.8,70.32 Z M236.96,86.88 C248.96,86.88 261.68,83.16 270.92,76.2 L270.92,42.12 L253.16,42.12 L253.16,66.72 C248.24,69.36 243.32,70.32 238.04,70.32 C221.96,70.32 210.8,59.16 210.8,43.44 C210.8,27.48 221.96,16.56 238.28,16.56 C246.8,16.56 253.88,19.56 260,26.04 L272.48,14.52 C264.32,5.04 252.08,1.02318154e-12 237.32,1.02318154e-12 C210.56,1.02318154e-12 191.12,18.12 191.12,43.44 C191.12,68.76 210.56,86.88 236.96,86.88 Z M347.96,85.44 L347.96,69.84 L302.24,69.84 L302.24,50.4 L347.96,50.4955556 L347.96,35.3844444 L302.24,35.28 L302.24,17.04 L347.96,17.04 L347.96,1.44 L282.92,1.44 L282.92,85.44 L347.96,85.44 Z" id="DOGE"></path>
                <path d="M395.69087,41.9955556 C400.663103,41.9955556 404.187723,40.3555636 406.012973,37.2648095 L406.012973,41.4909426 L415.202162,41.4909426 L415.202162,22.126422 C415.202162,11.8449338 409.222895,7.05111111 398.900792,7.05111111 C393.487982,7.05111111 388.012233,8.50187325 384.298793,11.1510911 L387.823414,18.026442 C390.27806,16.071067 393.991499,14.8726113 397.57906,14.8726113 C402.86599,14.8726113 405.383576,17.3325993 405.383576,21.5587325 L397.57906,21.5587325 C387.256957,21.5587325 383.04,25.721789 383.04,31.7140674 C383.04,37.5801925 387.760474,41.9955556 395.69087,41.9955556 Z M459.154041,0.44 L459.154041,8.626132 L467.656018,8.626132 L467.656018,16.1248789 L459.154041,16.1248789 L459.154041,29.8100919 C459.154041,32.6846115 460.740231,34.2468505 463.40503,34.2468505 C464.864324,34.2468505 466.323619,33.8094236 467.402228,32.9970593 L467.402228,32.9970593 L470.067027,39.8709106 C468.036704,41.3081704 465.054667,41.9955556 462.009183,41.9955556 C453.951338,41.9955556 449.256216,37.9337343 449.256216,29.935071 L449.256216,29.935071 L449.258781,16.2459366 C448.688263,16.2385471 447.880575,16.2400603 447.050201,16.2447206 L446.456184,16.2485065 C445.469374,16.2554493 444.52277,16.2649097 443.97812,16.2671805 L443.606229,16.267021 C437.766783,16.2041556 434.523211,19.3741968 434.523211,25.8493353 L434.523211,25.8493353 L434.523211,69.3844444 L424.661622,69.3844444 L424.661622,7.99555556 L434.080704,7.99555556 L434.080704,12.4590005 C437.287125,8.18836981 444.079786,8.00388485 449.256519,7.99591537 L449.256216,0.44 L459.154041,0.44 Z M405.742703,26.8844444 L405.742703,30.5367882 C404.568425,33.7906944 401.632731,35.3844444 398.240373,35.3844444 C394.652302,35.3844444 392.499459,33.6578819 392.499459,31.0680382 C392.499459,28.6774132 393.999925,26.8844444 398.762274,26.8844444 L405.742703,26.8844444 Z M402.869895,85.44 C409.982849,85.44 415.585087,82.2861693 418.04,76.8615804 L410.423474,72.6985239 C408.598026,75.9785078 405.891326,77.3661933 402.806948,77.3661933 C397.834175,77.3661933 393.931492,73.8969795 393.931492,67.9677778 C393.931492,62.038576 397.834175,58.5693622 402.806948,58.5693622 C405.891326,58.5693622 408.598026,60.0201243 410.423474,63.2370317 L418.04,59.1370517 C415.585087,53.5863097 409.982849,50.4955556 402.869895,50.4955556 C391.854258,50.4955556 383.985946,57.7493662 383.985946,67.9677778 C383.985946,78.1861893 391.854258,85.44 402.869895,85.44 Z M457.00603,85.44 C461.130007,85.44 464.879078,83.8832234 467.440942,80.9564835 L467.440942,84.9418315 L476.688649,84.9418315 L476.688649,51.44 L466.941066,51.44 L466.941066,68.0041026 C466.941066,74.1689377 463.691872,77.0334066 459.192988,77.0334066 C454.881557,77.0334066 452.382177,74.5425641 452.382177,68.9381685 L452.382177,51.44 L442.634595,51.44 L442.634595,70.3704029 C442.634595,80.7073993 448.570622,85.44 457.00603,85.44 Z M506.16794,85.44 C515.674213,85.44 523.04,78.64 523.04,67.9992593 C523.04,57.3585185 515.674213,50.5585185 506.16794,50.5585185 C501.949925,50.5585185 498.487376,51.8807407 495.969158,54.6511111 L495.969158,38.2177778 L486.148108,38.2177778 L486.148108,84.9362963 L495.52847,84.9362963 L495.52847,81.0325926 C497.983732,83.9918519 501.635148,85.44 506.16794,85.44 Z M504.121081,77.8844444 C499.273971,77.8844444 495.607568,74.3348546 495.607568,68.44 C495.607568,62.5451454 499.273971,58.9955556 504.121081,58.9955556 C508.968191,58.9955556 512.634595,62.5451454 512.634595,68.44 C512.634595,74.3348546 508.968191,77.8844444 504.121081,77.8844444 Z" id="dogeartclub-copy-3"></path>
            </g>
        </g>
    </g>
</svg>